<svg width="17" height="17" viewBox="0 0 20 20" fill="none" xmlns="http://www.w3.org/2000/svg">
<path d="M15.1247 0.329784C15.4602 0.436513 15.5408 0.856856 15.2919 1.10585L11.8648 4.53428L12.5 7.5L15.4646 8.13554L18.8917 4.7071C19.1406 4.45811 19.5608 4.53874 19.6674 4.8743C20.4353 7.28942 19.8618 10.0388 17.9468 11.9545C15.93 13.9722 12.9886 14.5012 10.4869 13.5417L4.86617 19.1648C3.75297 20.2784 1.94811 20.2784 0.834904 19.1648C-0.278317 18.0511 -0.278299 16.2455 0.834943 15.1318L6.45801 9.50674C5.50266 7.0056 6.03244 4.06678 8.04735 2.05107C9.96226 0.135396 12.7106 -0.438367 15.1247 0.329784Z" fill="current"/>
</svg>
