<svg width="20" height="25" viewBox="0 0 20 30" fill="none" xmlns="http://www.w3.org/2000/svg">
<path d="M5.3713 30C8.06298 30 10.2475 27.76 10.2475 25V20H5.3713C2.67961 20 0.495056 22.24 0.495056 25C0.495056 27.76 2.67961 30 5.3713 30Z" fill="current"/>
<path d="M0.495056 15C0.495056 12.24 2.67961 10 5.3713 10H10.2475V20H5.3713C2.67961 20 0.495056 17.76 0.495056 15Z" fill="current"/>
<path d="M0.495056 5C0.495056 2.24 2.67961 0 5.3713 0H10.2475V10H5.3713C2.67961 10 0.495056 7.76 0.495056 5Z" fill="current"/>
<path d="M10.2475 0H15.1237C17.8154 0 20 2.24 20 5C20 7.76 17.8154 10 15.1237 10H10.2475V0Z" fill="current"/>
<path d="M20 15C20 17.76 17.8154 20 15.1237 20C12.4321 20 10.2475 17.76 10.2475 15C10.2475 12.24 12.4321 10 15.1237 10C17.8154 10 20 12.24 20 15Z" fill="current"/>
</svg>
