<svg width="21" height="21" viewBox="0 0 21 21" fill="none" xmlns="http://www.w3.org/2000/svg">
<path d="M20.604 9.56451L11.4352 0.396034C10.9075 -0.132011 10.0511 -0.132011 9.5227 0.396034L7.61875 2.30001L10.034 4.71531C10.5953 4.52565 11.2389 4.65288 11.6863 5.10029C12.1358 5.55056 12.2621 6.19969 12.0679 6.76276L14.3955 9.09052C14.9587 8.89652 15.6084 9.02203 16.0582 9.47255C16.6868 10.1009 16.6868 11.1194 16.0582 11.7481C15.4295 12.377 14.411 12.377 13.7819 11.7481C13.3091 11.2748 13.1923 10.5804 13.4317 9.99789L11.2609 7.82714L11.2607 13.5397C11.4181 13.6175 11.5618 13.7202 11.6863 13.844C12.3149 14.4724 12.3149 15.4909 11.6863 16.1202C11.0575 16.7487 10.0386 16.7487 9.41073 16.1202C8.78212 15.4909 8.78212 14.4724 9.41073 13.8441C9.56137 13.6934 9.74039 13.574 9.93745 13.4929V7.72714C9.7401 7.64658 9.56098 7.52715 9.41073 7.37596C8.93445 6.90033 8.81993 6.20149 9.06398 5.61668L6.6831 3.23552L0.396212 9.5221C-0.132071 10.0506 -0.132071 10.9071 0.396212 11.4353L9.56519 20.6039C10.0931 21.132 10.9493 21.132 11.4778 20.6039L20.6039 11.4778C21.132 10.9496 21.1321 10.0926 20.604 9.56451Z" fill="current"/>
</svg>
