<svg width="21" height="21" viewBox="0 0 21 21" fill="current" xmlns="http://www.w3.org/2000/svg">
<path fill-rule="evenodd" clip-rule="evenodd" d="M10.4965 0C8.00379 0.0013336 5.59279 0.911696 3.69464 2.5683C1.7965 4.22491 0.534976 6.51974 0.135653 9.04245C-0.263671 11.5652 0.225239 14.1512 1.51497 16.3383C2.8047 18.5253 4.81115 20.1707 7.17553 20.9802C7.69715 21.0801 7.89363 20.7467 7.89363 20.4633C7.89363 20.1798 7.88319 19.358 7.87972 18.4595C4.95864 19.1102 4.34139 17.1885 4.34139 17.1885C3.86497 15.9406 3.17643 15.6126 3.17643 15.6126C2.2236 14.9459 3.24772 14.9584 3.24772 14.9584C4.30314 15.035 4.8578 16.069 4.8578 16.069C5.79324 17.7144 7.31463 17.2384 7.91275 16.9603C8.00665 16.2633 8.27963 15.7891 8.58043 15.5199C6.24705 15.249 3.79542 14.3255 3.79542 10.2004C3.78096 9.13061 4.16817 8.09603 4.87692 7.31073C4.76912 7.03976 4.40919 5.9452 4.9795 4.45846C4.9795 4.45846 5.86105 4.16966 7.86756 5.56193C9.58861 5.07938 11.4044 5.07938 13.1255 5.56193C15.1303 4.16966 16.0101 4.45846 16.0101 4.45846C16.5821 5.94164 16.2222 7.0362 16.1144 7.31073C16.8254 8.09615 17.2134 9.13254 17.1976 10.204C17.1976 14.338 14.7408 15.249 12.4039 15.5146C12.7795 15.8497 13.1151 16.5039 13.1151 17.5094C13.1151 18.9498 13.1029 20.1085 13.1029 20.4633C13.1029 20.7503 13.2924 21.0854 13.8245 20.9802C16.1891 20.1706 18.1958 18.5249 19.4855 16.3375C20.7752 14.1501 21.2638 11.5636 20.8641 9.04069C20.4643 6.51775 19.2021 4.2229 17.3034 2.56657C15.4046 0.910251 12.993 0.000488298 10.5 0H10.4965Z" fill="current"/>
</svg>