  <svg
              
              width="21"
              height="21"
              viewBox="0 0 19 19"
              fill="current"
              xmlns="http://www.w3.org/2000/svg"
            >
              <path
                d="M9.5041 4.7832C6.8955 4.7832 4.7914 6.8873 4.7914 9.4959C4.7914 12.1045 6.8955 14.2086 9.5041 14.2086C12.1127 14.2086 14.2168 12.1045 14.2168 9.4959C14.2168 6.8873 12.1127 4.7832 9.5041 4.7832ZM9.5041 12.5598C7.81835 12.5598 6.44023 11.1857 6.44023 9.4959C6.44023 7.80605 7.81425 6.43203 9.5041 6.43203C11.1939 6.43203 12.568 7.80605 12.568 9.4959C12.568 11.1857 11.1898 12.5598 9.5041 12.5598V12.5598ZM15.5088 4.59043C15.5088 5.20156 15.0166 5.68965 14.4096 5.68965C13.7984 5.68965 13.3103 5.19746 13.3103 4.59043C13.3103 3.9834 13.8025 3.49121 14.4096 3.49121C15.0166 3.49121 15.5088 3.9834 15.5088 4.59043ZM18.6301 5.70605C18.5603 4.23359 18.224 2.9293 17.1453 1.85469C16.0707 0.780078 14.7664 0.44375 13.2939 0.369922C11.7764 0.283789 7.22773 0.283789 5.71015 0.369922C4.24179 0.439649 2.93749 0.775977 1.85878 1.85059C0.780072 2.9252 0.447845 4.22949 0.374017 5.70195C0.287885 7.21953 0.287885 11.7682 0.374017 13.2857C0.443744 14.7582 0.780072 16.0625 1.85878 17.1371C2.93749 18.2117 4.23769 18.548 5.71015 18.6219C7.22773 18.708 11.7764 18.708 13.2939 18.6219C14.7664 18.5521 16.0707 18.2158 17.1453 17.1371C18.2199 16.0625 18.5562 14.7582 18.6301 13.2857C18.7162 11.7682 18.7162 7.22363 18.6301 5.70605V5.70605ZM16.6695 14.9141C16.3496 15.718 15.7303 16.3373 14.9223 16.6613C13.7123 17.1412 10.8412 17.0305 9.5041 17.0305C8.16699 17.0305 5.29179 17.1371 4.08593 16.6613C3.28203 16.3414 2.66269 15.7221 2.33867 14.9141C1.85878 13.7041 1.96953 10.833 1.96953 9.4959C1.96953 8.15879 1.86288 5.28359 2.33867 4.07773C2.65859 3.27383 3.27792 2.65449 4.08593 2.33047C5.29589 1.85059 8.16699 1.96133 9.5041 1.96133C10.8412 1.96133 13.7164 1.85469 14.9223 2.33047C15.7262 2.65039 16.3455 3.26973 16.6695 4.07773C17.1494 5.2877 17.0387 8.15879 17.0387 9.4959C17.0387 10.833 17.1494 13.7082 16.6695 14.9141Z"
                fill="current"
              />
            </svg>