<svg width="24" height="24" viewBox="0 0 24 24" fill="none" xmlns="http://www.w3.org/2000/svg">
<path fill-rule="evenodd" clip-rule="evenodd" d="M13 4.06982V5.64982L19.54 9.43982C18.57 6.58982 16.07 4.44982 13 4.06982ZM10.9047 4.10203C10.9464 4.09254 10.9786 4.08521 11 4.08008V11.4301L8 13.1601V5.09008C8.93271 4.55057 10.4591 4.20338 10.9047 4.10203ZM4 12C4 9.97998 4.76 8.13998 6 6.72998V14.31L4.63 15.1C4.23 14.14 4 13.1 4 12ZM5.64001 16.8199L12 13.1499L15 14.8899L8.02002 18.9099C7.10002 18.3699 6.28001 17.6699 5.64001 16.8199ZM13 7.95996V11.42L19.37 15.1C19.77 14.15 20 13.11 20 12.01L13 7.95996ZM12 20C11.46 20 10.93 19.94 10.42 19.84L17 16.04L18.36 16.83C16.9 18.75 14.6 20 12 20Z" fill="url(#paint0_linear_202_54)"/>
<path d="M12 2C6.48 2 2 6.48 2 12C2 17.52 6.48 22 12 22C17.52 22 22 17.52 22 12C22 6.48 17.52 2 12 2ZM13 4.07C16.07 4.45 18.57 6.59 19.54 9.43L13 5.65V4.07ZM8 5.08C9.02 4.49 10.75 4.13 11 4.07V11.42L8 13.15V5.08ZM4.63 15.1C4.23 14.14 4 13.1 4 12C4 9.98 4.76 8.14 6 6.73V14.31L4.63 15.1ZM5.64 16.83L12 13.15L15 14.88L8.02 18.91C7.09 18.38 6.28 17.68 5.64 16.83ZM12 20C11.46 20 10.93 19.94 10.42 19.84L17 16.04L18.36 16.82C16.9 18.75 14.6 20 12 20ZM13 11.42V7.96L20 12.01C20 13.11 19.77 14.15 19.37 15.1L13 11.42Z" fill="current"/>
<defs>
<linearGradient id="paint0_linear_202_54" x1="12" y1="4.06982" x2="12" y2="20" gradientUnits="userSpaceOnUse">
<stop stop-color="current" stop-opacity="0.3"/>
<stop offset="1" stop-color="current" stop-opacity="0"/>
</linearGradient>
</defs>
</svg>
