<svg width="21" height="21" viewBox="0 0 21 21" fill="none" xmlns="http://www.w3.org/2000/svg">
<path d="M21 0H0V21H21V0Z" fill="current"/>
<path d="M14.2965 15.9982C14.7549 16.7011 15.3514 17.2177 16.4063 17.2177C17.2926 17.2177 17.8587 16.8018 17.8587 16.2272C17.8587 15.5386 17.277 15.2947 16.3016 14.894L15.7669 14.6786C14.2235 14.0612 13.1982 13.2878 13.1982 11.6527C13.1982 10.1466 14.4204 9 16.3305 9C17.6903 9 18.668 9.44438 19.3725 10.6079L17.707 11.612C17.3403 10.9946 16.9447 10.7514 16.3305 10.7514C15.704 10.7514 15.307 11.1246 15.307 11.612C15.307 12.2145 15.7044 12.4584 16.622 12.8315L17.1567 13.0466C18.974 13.7783 20 14.5243 20 16.2014C20 18.0095 18.4873 19 16.4558 19C14.4695 19 13.1863 18.1112 12.5583 16.9463L14.2965 15.9982ZM6.74101 16.1722C7.077 16.7319 7.38264 17.2052 8.11749 17.2052C8.82018 17.2052 9.26347 16.947 9.26347 15.9432V9.11466H11.4022V15.9704C11.4022 18.0498 10.1038 18.9963 8.20853 18.9963C6.49606 18.9963 5.50435 18.1642 5 17.1619L6.74101 16.1722Z" fill="#011627"/>
</svg>
