<svg width="24" height="24" viewBox="0 0 24 24" fill="current" xmlns="http://www.w3.org/2000/svg">
<path d="M19.09 16.79C19.325 16.605 19.475 16.321 19.475 16.001C19.475 15.643 19.287 15.329 19.004 15.152L19 9.32996L18 9.99996V15.15C17.717 15.33 17.532 15.642 17.532 15.997C17.532 16.313 17.679 16.595 17.908 16.779L17.53 17.281C17.207 17.691 17.009 18.212 17 18.779V20.001H17.81C17.812 20.001 17.814 20.001 17.815 20.001C18.226 20.001 18.572 19.719 18.668 19.337L18.999 18.001V20.001H19.999V18.791C19.99 18.222 19.792 17.701 19.465 17.286L19.09 16.79Z" fill="current" fill-opacity="0.6"/>
<path d="M12 4L4 8L12 13L20 8L12 4Z" fill="current" fill-opacity="0.6"/>
<path d="M12 14L7 10.67V12.38C7 13.29 9.94 16 12 16C14.06 16 17 13.29 17 12.38V10.67L12 14Z" fill="current" fill-opacity="0.6"/>
</svg>
