<svg width="30" height="20" viewBox="0 0 30 20" fill="none" xmlns="http://www.w3.org/2000/svg">
<path d="M25.8323 11.4972C24.7857 11.5021 23.8761 11.7262 23.1145 12.0574C22.835 11.5654 22.5555 11.127 22.5062 10.8055C22.4514 10.4304 22.3857 10.2015 22.4514 9.75334C22.5172 9.3052 22.8131 8.66708 22.8076 8.61836C22.8021 8.56965 22.7418 8.34071 22.1391 8.33584C21.5363 8.33097 21.0158 8.43813 20.9555 8.5794C20.8952 8.72066 20.7801 9.04215 20.7034 9.37339C20.5993 9.86051 19.4979 11.5995 18.8678 12.5104C18.665 12.1548 18.4897 11.8431 18.4513 11.5946C18.3965 11.2196 18.3308 10.9906 18.3965 10.5425C18.4623 10.0943 18.7582 9.4562 18.7527 9.40749C18.7472 9.35878 18.6869 9.12984 18.0842 9.12496C17.4814 9.12009 16.9608 9.22726 16.9006 9.36852C16.8403 9.50979 16.7745 9.84103 16.6485 10.1625C16.5225 10.484 15.0594 13.3872 14.6758 14.1374C14.4786 14.5222 14.3087 14.8291 14.1882 15.0386C14.1882 15.0386 14.1827 15.0532 14.1662 15.0775C14.0621 15.2578 14.0019 15.3552 14.0019 15.3552C14.0019 15.3552 14.0019 15.3552 14.0019 15.36C13.9197 15.4916 13.832 15.6133 13.7882 15.6133C13.7553 15.6133 13.695 15.2626 13.7991 14.7852C14.0183 13.7769 14.5389 12.2084 14.5334 12.1548C14.5334 12.1256 14.632 11.8528 14.1936 11.7115C13.7662 11.5703 13.6128 11.8041 13.5744 11.8041C13.5361 11.8041 13.5087 11.8869 13.5087 11.8869C13.5087 11.8869 13.9854 10.1236 12.5991 10.1236C11.7333 10.1236 10.5387 10.9663 9.94694 11.7262C9.57433 11.9064 8.77978 12.2912 7.93044 12.7053C7.60714 12.866 7.27289 13.0268 6.96055 13.1778C6.93863 13.1583 6.91671 13.1339 6.89479 13.1144C5.21803 11.5216 2.11657 10.3963 2.24808 8.2579C2.2974 7.47851 2.59877 5.43263 8.20442 2.94834C12.8183 0.926805 16.4896 1.48699 17.1252 2.72913C18.0349 4.50224 15.1581 7.79514 10.3908 8.27251C8.57156 8.45275 7.6181 7.82924 7.377 7.59542C7.12494 7.35186 7.08658 7.33725 6.99343 7.38596C6.84 7.45903 6.93863 7.67823 6.99343 7.80488C7.1359 8.13612 7.72222 8.72066 8.71403 9.00806C9.59077 9.26136 11.7223 9.40262 14.3032 8.51607C17.191 7.52235 19.4486 4.76041 18.7856 2.44661C18.1225 0.0987077 13.7388 -0.675806 9.59076 0.634535C7.12494 1.41392 4.45088 2.64145 2.52754 4.23919C0.242539 6.13894 -0.119115 7.79027 0.0288348 8.48197C0.560358 10.937 4.36869 12.5348 5.89202 13.7185C5.81531 13.7574 5.74407 13.7915 5.6838 13.8208C4.92213 14.1569 2.01794 15.5062 1.29463 16.9334C0.472684 18.5507 1.42614 19.71 2.05629 19.8659C4.01252 20.3481 6.02354 19.481 7.10302 18.0489C8.1825 16.6168 8.05099 14.756 7.55235 13.9036C7.54687 13.8938 7.54139 13.8841 7.53043 13.8743C7.7277 13.772 7.93044 13.6649 8.12771 13.5626C8.51676 13.358 8.90033 13.168 9.22911 13.0121C9.0428 13.4652 8.90581 14.0059 8.84006 14.7852C8.75786 15.701 9.17979 16.8896 9.73324 17.3572C9.97982 17.5618 10.2702 17.5667 10.4565 17.5667C11.1031 17.5667 11.3936 17.0893 11.7169 16.5243C12.1114 15.8325 12.4676 15.0288 12.4676 15.0288C12.4676 15.0288 12.0237 17.2013 13.2292 17.2013C13.6676 17.2013 14.1114 16.6947 14.3087 16.4366C14.3087 16.4414 14.3087 16.4414 14.3087 16.4414C14.3087 16.4414 14.3197 16.4268 14.3416 16.3927C14.3854 16.3294 14.4128 16.2904 14.4128 16.2904C14.4128 16.2904 14.4128 16.2856 14.4128 16.2807C14.5882 16.0079 14.9827 15.3893 15.569 14.3615C16.3252 13.0365 17.054 11.3803 17.054 11.3803C17.054 11.3803 17.1198 11.7846 17.3444 12.4568C17.4759 12.8514 17.7499 13.2849 17.9691 13.7039C17.7937 13.9231 17.6842 14.0448 17.6842 14.0448C17.6842 14.0448 17.6842 14.0448 17.6896 14.0497C17.5472 14.2153 17.3937 14.3956 17.2239 14.5709C16.6266 15.2042 15.9142 15.93 15.8156 16.1394C15.7005 16.3879 15.7279 16.5681 15.9471 16.7142C16.106 16.8214 16.391 16.836 16.6814 16.8214C17.2184 16.7873 17.5965 16.6704 17.7828 16.5973C18.0732 16.5048 18.4129 16.3635 18.7308 16.154C19.3171 15.7692 19.6733 15.2188 19.6404 14.493C19.6239 14.0935 19.476 13.6941 19.2952 13.319C19.35 13.2508 19.3993 13.1826 19.4541 13.1144C20.3801 11.9113 21.098 10.5912 21.098 10.5912C21.098 10.5912 21.1637 10.9955 21.3884 11.6677C21.498 12.0087 21.7226 12.3789 21.9199 12.7394C21.0486 13.3677 20.5116 14.0984 20.3199 14.5758C19.9746 15.4623 20.2431 15.8618 20.7527 15.9543C20.9829 15.9982 21.3117 15.9007 21.5528 15.8082C21.8596 15.7205 22.2213 15.5695 22.5665 15.3454C23.1528 14.9606 23.7172 14.4248 23.6843 13.699C23.6679 13.3677 23.5693 13.0414 23.4323 12.7248C24.172 12.452 25.1255 12.301 26.342 12.4276C28.9503 12.7004 29.4653 14.1471 29.3667 14.756C29.2681 15.3649 28.7201 15.6962 28.5393 15.7985C28.3585 15.9007 28.2982 15.9348 28.3146 16.0079C28.3365 16.1151 28.4242 16.1102 28.5776 16.0907C28.7913 16.0566 29.9475 15.5987 29.9969 14.4784C30.0791 13.0462 28.5448 11.4826 25.8323 11.4972ZM5.7112 17.5277C4.84542 18.3656 3.6399 18.6822 3.11934 18.4143C2.56042 18.1269 2.7796 16.8896 3.84265 16.003C4.48924 15.4623 5.32214 14.9606 5.87559 14.6537C6.00162 14.5855 6.18792 14.4881 6.41259 14.3663C6.45095 14.3468 6.47286 14.3371 6.47286 14.3371C6.5167 14.3127 6.56054 14.2884 6.60437 14.264C6.99343 15.5305 6.62081 16.646 5.7112 17.5277ZM12.0128 13.7185C11.7114 14.3712 11.0812 16.042 10.6976 15.9495C10.3689 15.8715 10.1661 14.605 10.6319 13.3531C10.8675 12.7247 11.3662 11.9746 11.6566 11.6823C12.1278 11.2147 12.6484 11.0588 12.7744 11.2488C12.9333 11.4972 12.1991 13.3093 12.0128 13.7185ZM17.2129 15.93C17.0869 15.9884 16.9663 16.0274 16.9115 15.9982C16.8732 15.9787 16.9663 15.9007 16.9663 15.9007C16.9663 15.9007 17.6184 15.2772 17.8759 14.9947C18.0239 14.8291 18.1992 14.6342 18.3855 14.415C18.3855 14.4345 18.3855 14.4589 18.3855 14.4784C18.3855 15.2237 17.5746 15.7254 17.2129 15.93ZM21.224 15.1165C21.1308 15.058 21.1473 14.8632 21.4596 14.2543C21.5802 14.0156 21.8651 13.6162 22.3528 13.2314C22.4076 13.3872 22.4459 13.5382 22.4405 13.6795C22.435 14.6196 21.6788 14.9704 21.224 15.1165Z" fill="current"/>
</svg>