<svg width="18" height="18" viewBox="0 0 16 16" fill="none" xmlns="http://www.w3.org/2000/svg">
<path d="M4.69999 8.93733L7.05599 11.2947L6.11399 12.2373L7.05732 13.1807L6.11465 14.1233L4.46465 12.4733L2.57865 14.3593L1.63599 13.4167L3.52199 11.53L1.87199 9.88067L2.81465 8.938L3.75732 9.88L4.69932 8.93733H4.69999ZM1.99999 2L4.36399 2.002L12.242 9.88067L13.1853 8.938L14.128 9.88067L12.4787 11.5307L14.364 13.4167L13.4213 14.3593L11.5353 12.4733L9.88532 14.1233L8.94265 13.1807L9.88532 12.2373L2.00199 4.354L1.99999 2ZM11.638 2L14 2.002L14.0013 4.35067L11.2993 7.052L8.94199 4.69533L11.638 2Z" fill="current"/>
</svg>
