<svg width="20" height="20" viewBox="0 0 20 20" fill="none" xmlns="http://www.w3.org/2000/svg">
<path d="M0 0H20V20H0V0Z" fill="current"/>
<path d="M10.0819 7.13161H11.0379V8.9202H8.45317V16.8777L8.38466 16.898C8.29124 16.9249 7.06117 16.9249 6.79647 16.8946L6.58471 16.8743V8.9202H4V7.13161L4.81901 7.12149C5.26744 7.11474 6.41966 7.11474 7.37881 7.12149C8.33795 7.12824 9.55245 7.13161 10.0819 7.13161ZM17.3782 16.034C16.9983 16.4694 16.5903 16.7123 15.9115 16.9114C15.6156 16.9992 15.5658 17.0026 14.8994 16.9992C14.233 16.9958 14.18 16.9958 13.8561 16.9047C13.0185 16.6718 12.3427 16.2163 11.8818 15.5717C11.751 15.3895 11.5361 15.0115 11.5361 14.9643C11.5361 14.9508 11.5673 14.9204 11.6078 14.9001C11.6482 14.8799 11.7323 14.8225 11.8008 14.7786C11.8693 14.7348 11.9939 14.6538 12.078 14.6065C12.1621 14.5593 12.405 14.4041 12.6167 14.2657C12.8285 14.1273 13.0216 14.016 13.0434 14.016C13.0652 14.016 13.1056 14.0632 13.1368 14.1206C13.3236 14.4614 13.7596 14.8968 14.0679 15.0452C14.2579 15.133 14.6783 15.2309 14.8807 15.2309C15.0675 15.2309 15.4101 15.1431 15.5938 15.052C15.79 14.9541 15.8897 14.8563 16.008 14.6605C16.089 14.5222 16.0983 14.4851 16.0952 14.2218C16.0952 13.9788 16.0827 13.9114 16.0205 13.8C15.8461 13.4895 15.6094 13.3275 14.6502 12.8686C13.66 12.3927 13.2146 12.1093 12.8534 11.7279C12.5856 11.4445 12.5327 11.3668 12.3645 11.0125C12.1465 10.5569 12.1185 10.4084 12.1154 9.73012C12.1122 9.25429 12.1216 9.09905 12.1683 8.93707C12.2337 8.69409 12.4455 8.22501 12.542 8.1069C12.7413 7.85379 12.8129 7.77618 12.9531 7.65131C13.3766 7.27335 14.0368 7.02362 14.6689 7C14.7406 7 14.9772 7.0135 15.1983 7.03037C15.8336 7.08774 16.2665 7.25648 16.6838 7.61757C16.9983 7.88754 17.4747 8.52198 17.428 8.60635C17.3969 8.65697 16.1544 9.55464 16.0734 9.58163C16.0236 9.59851 15.9893 9.57826 15.9208 9.49052C15.4973 8.94044 15.326 8.82233 14.9149 8.79533C14.6222 8.77508 14.4665 8.81221 14.2703 8.95394C14.0648 9.10243 13.9651 9.32853 13.9651 9.64238C13.9683 10.1013 14.1302 10.3173 14.7281 10.6379C15.1142 10.8438 15.4443 11.0125 15.4693 11.0125C15.5066 11.0125 16.307 11.4445 16.5156 11.5794C17.4872 12.197 17.8827 12.8315 17.9855 13.9249C18.0602 14.7483 17.8453 15.5008 17.3782 16.034Z" fill="#011627"/>
</svg>
